# xmcd
#
# Track frame offsets:
# 150
# 20902
# 39309
# 64059
# 78597
# 95612
# 112268
# 131171
# 155399
# 167392
# 186548
# 202395
#
# Disc length: 2945 seconds
#
# Revision: 0
# Processed by: cddbd v1.4PL0 Copyright (c) Steve Scherf et al.
# Submitted via: Axialis_AX_CDPlayer 2.6
#
DISCID=b10b7f0c
DTITLE=A Village Voice - Stolen Secrets
DYEAR=1900
DGENRE=
TTITLE0=All Or Nothing At All
TTITLE1=Girl From Ipanema
TTITLE2=Time After Time
TTITLE3=Devil May Care
TTITLE4=Gee-Baby, Ain't I Good For You
TTITLE5=Fifty Ways To Leave Your Lover
TTITLE6=Fields Of Gold
TTITLE7=Desafinado
TTITLE8=Never Will I Marry
TTITLE9=Orfeo Negro
TTITLE10=Ain't Misbehavin
TTITLE11=Takes My Breath Away
EXTD=
EXTT0=
EXTT1=
EXTT2=
EXTT3=
EXTT4=
EXTT5=
EXTT6=
EXTT7=
EXTT8=
EXTT9=
EXTT10=
EXTT11=
PLAYORDER=
